HIERARCHY
ROOT Hips
{
    OFFSET 0.000000 0.000000 0.000000
    CHANNELS 6 Xposition Yposition Zposition Zrotation Xrotation Yrotation
    JOINT Spine
    {
        OFFSET -0.000000 7.236184 0.000000
        CHANNELS 3 Zrotation Xrotation Yrotation
        JOINT Spine1
        {
            OFFSET -0.000000 20.420147 0.000000
            CHANNELS 3 Zrotation Xrotation Yrotation
            JOINT Neck
            {
                OFFSET -0.000000 20.336288 1.848754
                CHANNELS 3 Zrotation Xrotation Yrotation
                JOINT Head
                {
                    OFFSET -0.000000 12.354461 -1.764923
                    CHANNELS 3 Zrotation Xrotation Yrotation
                    End Site
                    {
                        OFFSET -0.000000 22.061537 0.000000
                    }
                }
            }
            JOINT LeftShoulder
            {
                OFFSET 3.573296 18.396038 -0.314103
                CHANNELS 3 Zrotation Xrotation Yrotation
                JOINT LeftArm
                {
                    OFFSET 10.880760 0.000000 0.000000
                    CHANNELS 3 Zrotation Xrotation Yrotation
                    JOINT LeftForeArm
                    {
                        OFFSET 27.185530 0.000000 0.000000
                        CHANNELS 3 Zrotation Xrotation Yrotation
                        JOINT LeftHand
                        {
                            OFFSET 27.825975 0.000000 0.000000
                            CHANNELS 3 Zrotation Xrotation Yrotation
                            End Site
                            {
                                OFFSET 13.236923 0.000000 0.000000
                            }
                        }
                    }
                }
            }
            JOINT RightShoulder
            {
                OFFSET -3.474926 18.396038 -0.314103
                CHANNELS 3 Zrotation Xrotation Yrotation
                JOINT RightArm
                {
                    OFFSET -10.880760 0.000000 0.000000
                    CHANNELS 3 Zrotation Xrotation Yrotation
                    JOINT RightForeArm
                    {
                        OFFSET -27.185530 0.000000 0.000000
                        CHANNELS 3 Zrotation Xrotation Yrotation
                        JOINT RightHand
                        {
                            OFFSET -27.825975 0.000000 0.000000
                            CHANNELS 3 Zrotation Xrotation Yrotation
                            End Site
                            {
                                OFFSET -13.236923 0.000000 0.000000
                            }
                        }
                    }
                }
            }
        }
    }
    JOINT LeftUpLeg
    {
        OFFSET 8.824615 0.000000 0.000000
        CHANNELS 3 Zrotation Xrotation Yrotation
        JOINT LeftLeg
        {
            OFFSET -0.000000 -35.111282 0.000000
            CHANNELS 3 Zrotation Xrotation Yrotation
            JOINT LeftFoot
            {
                OFFSET -0.000000 -42.324711 0.000000
                CHANNELS 3 Zrotation Xrotation Yrotation
                JOINT LeftToeBase
                {
                    OFFSET -0.000000 -5.735999 13.236923
                    CHANNELS 3 Zrotation Xrotation Yrotation
                    End Site
                    {
                        OFFSET -0.000000 0.000000 3.529846
                    }
                }
            }
        }
    }
    JOINT RightUpLeg
    {
        OFFSET -8.824615 0.000000 0.000000
        CHANNELS 3 Zrotation Xrotation Yrotation
        JOINT RightLeg
        {
            OFFSET -0.000000 -35.111282 0.000000
            CHANNELS 3 Zrotation Xrotation Yrotation
            JOINT RightFoot
            {
                OFFSET -0.000000 -42.324711 0.000000
                CHANNELS 3 Zrotation Xrotation Yrotation
                JOINT RightToeBase
                {
                    OFFSET -0.000000 -5.735999 13.236923
                    CHANNELS 3 Zrotation Xrotation Yrotation
                    End Site
                    {
                        OFFSET -0.000000 0.000000 3.529846
                    }
                }
            }
        }
    }
}
MOTION
Frames:    8
Frame Time:    0.008333
16.834114    85.238091    110.538879    -7.682241    -5.980826    -164.307037    -0.675931    -11.212692    7.582947    -5.795912    3.444882    7.823832    -4.643859    11.712369    -10.179555    10.659338    2.333563    -9.107308    13.450422    2.210875    -2.799357    -20.561058    9.044873    -9.931063    7.993393    5.808429    -6.858641    18.068117    5.785892    -3.159765    -12.637586    -0.991208    1.600135    11.703279    -24.679274    10.881292    -31.514687    -31.199688    53.092659    -10.154894    -16.920696    6.363350    7.512241    -40.210976    -11.770465    -5.571996    46.108440    19.764475    -16.576336    23.791311    -29.246767    -2.251607    -3.537250    2.512212    -13.990976    4.239478    -8.483279    2.338748    5.646338    -4.014767    4.438103    -8.960158    -11.837901    -1.041349    0.216570    1.125962    
16.486855    85.157692    110.369614    -7.384837    -6.026217    -164.923157    -0.725548    -11.469000    7.259073    -5.509788    3.157389    7.483999    -4.428975    11.733699    -9.687362    10.434708    2.336552    -8.630666    14.092927    1.681205    -2.990475    -19.621347    8.442854    -9.705936    8.595531    5.974991    -7.020941    16.147625    6.113030    -2.745742    -12.836425    -0.848929    1.357747    10.791013    -23.176083    9.994208    -31.348133    -29.719259    51.570515    -9.690847    -15.895673    6.867538    7.902212    -38.295242    -11.444209    -4.963754    44.152351    19.000414    -16.736622    23.131905    -28.858385    -2.171164    -3.675772    2.423108    -13.994783    4.146267    -8.431226    2.355030    5.533077    -3.881260    4.751919    -8.893544    -11.439372    -1.111854    0.184121    1.202248    
16.136868    85.075928    110.206314    -7.088740    -6.070399    -165.506302    -0.785868    -11.715648    6.933079    -5.206581    2.892767    7.145360    -4.204347    11.743958    -9.218153    10.215586    2.340044    -8.177438    14.701162    1.180593    -3.158277    -18.752459    7.849304    -9.531588    9.210274    6.117098    -7.212361    14.262275    6.400786    -2.369066    -12.996972    -0.682731    1.133487    10.012763    -21.733082    9.204464    -31.180786    -28.285696    50.178612    -9.291993    -14.879196    7.303614    8.233027    -36.480667    -11.160880    -4.411260    42.290077    18.231674    -16.873228    22.352732    -28.443010    -2.076024    -3.857515    2.317746    -14.004221    4.040874    -8.382797    2.375483    5.458629    -3.770052    5.075549    -8.826619    -11.045551    -1.179480    0.145548    1.275438    
15.829224    85.003922    110.069183    -6.831842    -6.108113    -165.986237    -0.846956    -11.921305    6.646374    -4.931728    2.678321    6.850267    -4.000109    11.744554    -8.828189    10.031139    2.344202    -7.801694    15.205421    0.764333    -3.285422    -18.050453    7.334118    -9.423172    9.759112    6.209975    -7.404624    12.652728    6.610498    -2.075135    -13.103833    -0.522575    0.954090    9.432376    -20.528481    8.580462    -31.045258    -27.077122    49.056755    -8.991590    -14.004023    7.636509    8.481609    -34.979515    -10.947532    -3.978103    40.742050    17.565052    -16.972351    21.572922    -28.056250    -1.980812    -4.054806    2.212296    -14.017509    3.937727    -8.343587    2.396149    5.427464    -3.693783    5.366770    -8.764924    -10.704491    -1.234656    0.104446    1.335178    
15.381945    84.899712    109.878601    -6.463203    -6.163515    -166.641937    -0.943740    -12.209496    6.228190    -4.524519    2.393695    6.423800    -3.694396    11.741260    -8.289025    9.774167    2.347670    -7.283196    15.899974    0.191833    -3.452035    -17.102171    6.587418    -9.324809    10.564231    6.291556    -7.712101    10.394928    6.848427    -1.689110    -13.213615    -0.277689    0.715784    8.715107    -18.860018    7.752980    -30.816572    -25.376680    47.596237    -8.627254    -12.751860    8.003557    8.786108    -32.914753    -10.675315    -3.402808    38.597198    16.613832    -17.085144    20.331499    -27.468052    -1.830729    -4.380414    2.045977    -14.044777    3.770370    -8.292518    2.429747    5.429073    -3.607010    5.798086    -8.668200    -10.218126    -1.308160    0.034319    1.414800    
15.048038    84.822723    109.745087    -6.192496    -6.204589    -167.090668    -1.024978    -12.409544    5.915812    -4.215766    2.198977    6.108302    -3.459181    11.731216    -7.914491    9.595246    2.352377    -6.924082    16.384281    -0.214280    -3.555780    -16.464285    6.031424    -9.306281    11.180103    6.290284    -7.972401    8.801965    6.955657    -1.453333    -13.255311    -0.087795    0.558368    8.285910    -17.701357    7.192039    -30.663450    -24.177258    46.610043    -8.404202    -11.852677    8.224775    8.978670    -31.483191    -10.508042    -3.037353    37.099384    15.936356    -17.143068    19.298624    -27.004831    -1.709694    -4.655479    1.911743    -14.072353    3.627032    -8.260200    2.456984    5.478989    -3.560097    6.126331    -8.590783    -9.870327    -1.355968    -0.028751    1.466632    
14.574573    84.715233    109.566025    -5.814290    -6.264799    -167.683731    -1.149839    -12.682577    5.472321    -3.770304    1.949543    5.664394    -3.121874    11.714919    -7.413125    9.356266    2.357127    -6.444223    17.028938    -0.766504    -3.692470    -15.628134    5.239545    -9.338907    12.064143    6.207147    -8.375154    6.679503    7.020507    -1.163810    -13.274509    0.187937    0.351954    7.789980    -16.158796    6.452940    -30.406940    -22.548401    45.368847    -8.155407    -10.622343    8.423105    9.210859    -29.570059    -10.298173    -2.572874    35.078518    15.017039    -17.192476    17.742380    -26.324631    -1.537142    -5.043940    1.720119    -14.121264    3.398091    -8.222891    2.497932    5.607947    -3.500749    6.594976    -8.474399    -9.404276    -1.415979    -0.131247    1.531755    
14.149406    84.621254    109.417580    -5.480966    -6.320065    -168.167191    -1.275051    -12.911227    5.074958    -3.361000    1.750001    5.270685    -2.818501    11.692567    -6.998306    9.160509    2.364295    -6.048208    17.558092    -1.246193    -3.803437    -14.954664    4.524230    -9.431277    12.878471    6.029853    -8.778945    4.955075    6.974559    -0.972427    -13.252314    0.441983    0.179194    7.463536    -14.902700    5.842695    -30.160774    -21.181450    44.386669    -7.992853    -9.586415    8.525434    9.389462    -27.983068    -10.135962    -2.225234    33.381668    14.253850    -17.200277    16.251194    -25.692801    -1.387199    -5.362572    1.553311    -14.176669    3.159813    -8.198794    2.536847    5.796195    -3.449505    7.018050    -8.361424    -9.021658    -1.459860    -0.243221    1.579466    
